<svg width="214" height="65" viewBox="0 0 214 65" fill="none" xmlns="http://www.w3.org/2000/svg">
<path d="M33.986 64.7112C52.7559 64.7112 67.972 50.2251 67.972 32.3556C67.972 14.4861 52.7559 0 33.986 0C15.216 0 0 14.4861 0 32.3556C0 50.2251 15.216 64.7112 33.986 64.7112Z" fill="white"/>
<path d="M57.8857 17.9098C55.0952 17.748 52.2945 17.9142 49.5468 18.4047C41.8165 19.784 34.8388 23.6996 29.8276 29.4705C29.9759 21.6138 26.9103 14.01 21.2786 8.26539C27.5527 5.2772 34.7675 4.60921 41.5288 6.39053C48.2902 8.17185 54.1179 12.276 57.8857 17.9098Z" fill="#F7DD59"/>
<path d="M62.2873 32.3555C62.2828 37.171 60.9233 41.8974 58.3501 46.0432C53.8765 42.7336 48.5399 40.6476 42.9142 40.0094C37.2885 39.3712 31.5864 40.205 26.4212 42.4212C26.9251 41.4798 27.3755 40.5132 27.7705 39.5258C29.6113 34.9882 32.6404 30.9743 36.5699 27.8654C40.4994 24.7564 45.1988 22.6559 50.2214 21.7634C53.4205 21.1918 56.6954 21.1136 59.9206 21.5317C61.4912 24.9438 62.2973 28.6302 62.2873 32.3555Z" fill="#EDBC57"/>
<path d="M56.2931 48.9285C53.9952 51.7365 51.1356 54.0829 47.8794 55.8322C44.6232 57.5815 41.0351 58.699 37.3225 59.12C33.6099 59.541 29.8465 59.2572 26.2498 58.2851C22.6531 57.3129 19.2945 55.6716 16.3681 53.4561C17.858 52.4565 19.2666 51.3513 20.5818 50.1499C24.3277 46.8232 29.0071 44.603 34.0523 43.7587C37.9323 43.0583 41.9248 43.1573 45.7612 44.049C49.5975 44.9408 53.1888 46.6046 56.2931 48.9285Z" fill="#749143"/>
<path d="M21.3338 43.885C20.3726 45.2326 19.2803 46.4912 18.0713 47.6439L17.9054 47.7913C16.6038 49.0271 15.1776 50.138 13.6475 51.1079C10.7695 48.2846 8.57589 44.8956 7.22078 41.1789C5.86566 37.4622 5.38192 33.5081 5.80355 29.5944C6.22518 25.6807 7.54195 21.9024 9.66132 18.525C11.7807 15.1476 14.6513 12.253 18.0713 10.0447C22.6731 14.4304 25.5227 20.2078 26.1284 26.3799C26.7341 32.5521 25.058 38.732 21.3891 43.8534L21.3338 43.885Z" fill="#9AC259"/>
<path d="M82.7254 33.2608C80.762 32.0074 79.2248 30.2365 78.3016 28.1648C77.2814 25.8678 76.7766 23.3933 76.8196 20.8998C76.7675 18.4062 77.257 15.9293 78.2573 13.6242C79.1699 11.5351 80.7085 9.74799 82.6812 8.48609C84.9072 7.25137 87.4374 6.60083 90.0136 6.60083C92.5899 6.60083 95.1201 7.25137 97.3461 8.48609C99.3653 9.73211 100.951 11.5202 101.903 13.6242C102.946 15.9202 103.473 18.3984 103.451 20.8998C103.497 23.3956 102.984 25.8722 101.947 28.1648C100.994 30.2441 99.4259 32.0146 97.4346 33.2608C95.206 34.4882 92.6768 35.1345 90.1021 35.1345C87.5274 35.1345 84.9983 34.4882 82.7696 33.2608H82.7254ZM94.7803 31.3129C96.1973 30.1657 97.2791 28.6896 97.9212 27.0276C98.6736 25.1087 99.0485 23.0743 99.0272 21.0261C99.0156 19.1305 98.729 17.2456 98.1756 15.4247C97.6651 13.6446 96.7044 12.0106 95.3775 10.6656C94.7186 10.0194 93.924 9.51287 93.0454 9.17904C92.1669 8.84521 91.2242 8.6916 90.2791 8.72826C88.4772 8.69419 86.724 9.28551 85.3465 10.3918C83.8863 11.607 82.791 13.1694 82.1724 14.9193C81.4143 16.9463 81.0398 19.0852 81.0665 21.2367C80.9242 24.1981 81.7177 27.1322 83.3447 29.6599C84.0214 30.7017 84.975 31.5551 86.1091 32.1337C87.2431 32.7124 88.5175 32.9958 89.8035 32.9554C91.5867 32.9975 93.3274 32.4339 94.7139 31.3656L94.7803 31.3129Z" fill="white"/>
<path d="M108.981 33.8089C108.363 33.438 107.855 32.9234 107.505 32.3135C107.155 31.7036 106.974 31.0188 106.979 30.3237C106.976 29.9282 107.06 29.5365 107.226 29.1738C107.392 28.8111 107.635 28.4855 107.941 28.2179C108.262 27.9282 108.641 27.7026 109.055 27.5543C109.469 27.4061 109.91 27.3381 110.352 27.3545C110.555 27.3548 110.755 27.398 110.938 27.4808C111.012 27.5069 111.076 27.5525 111.123 27.6122C111.17 27.672 111.198 27.7433 111.204 27.8178C111.139 28.0705 111.05 28.3172 110.938 28.5548C110.748 29.0174 110.654 29.511 110.662 30.0078C110.639 30.4709 110.735 30.9323 110.941 31.3522C111.148 31.7722 111.458 32.1383 111.845 32.419C112.6 32.9771 113.532 33.2742 114.488 33.2613C115.483 33.3052 116.461 33.0062 117.242 32.419C117.593 32.1586 117.875 31.8243 118.067 31.4425C118.259 31.0607 118.355 30.6417 118.348 30.2184C118.351 29.8211 118.252 29.4291 118.059 29.0766C117.867 28.7242 117.586 28.4222 117.242 28.1968C116.208 27.5235 115.095 26.9686 113.924 26.5438C112.79 26.0973 111.682 25.5912 110.606 25.0276C109.742 24.5409 108.989 23.8926 108.395 23.1218C107.758 22.2882 107.427 21.2778 107.455 20.2473C107.454 19.5175 107.645 18.7991 108.01 18.1574C108.375 17.5156 108.902 16.9709 109.545 16.5727C111.086 15.5713 112.923 15.0658 114.787 15.1302C116.443 15.0702 118.085 15.4337 119.543 16.1831C120.103 16.4443 120.574 16.8506 120.903 17.3553C121.231 17.86 121.404 18.4427 121.401 19.0365C121.423 19.4755 121.352 19.9143 121.193 20.3268C121.033 20.7392 120.788 21.1168 120.472 21.4371C120.157 21.7492 119.777 21.9941 119.355 22.1557C118.934 22.3172 118.481 22.3917 118.027 22.3742C117.441 22.3742 117.143 22.1952 117.143 21.8267C117.209 21.5551 117.321 21.2955 117.474 21.0581C117.706 20.6438 117.82 20.1794 117.806 19.7103C117.832 19.3143 117.752 18.9184 117.574 18.5595C117.396 18.2006 117.126 17.8903 116.789 17.6572C116.117 17.1952 115.306 16.9516 114.477 16.9622C113.547 16.912 112.629 17.181 111.889 17.7203C111.579 17.9595 111.331 18.2633 111.164 18.6084C110.998 18.9535 110.916 19.3306 110.927 19.7103C110.923 20.1658 111.033 20.6157 111.248 21.0223C111.464 21.429 111.778 21.7806 112.166 22.0478C113.24 22.7769 114.422 23.3516 115.672 23.7535C116.977 24.2905 118.05 24.8064 118.912 25.2381C119.756 25.6681 120.507 26.247 121.124 26.9439C121.709 27.6311 122.022 28.4918 122.009 29.3761C122.028 30.1964 121.836 31.0088 121.451 31.7428C121.065 32.4767 120.498 33.11 119.797 33.5877C118.1 34.7056 116.063 35.2606 114.002 35.1671C112.22 35.2224 110.465 34.7476 108.981 33.8089Z" fill="white"/>
<path d="M129.231 34.1874C128.646 33.2328 128.388 32.1292 128.49 31.0287V19.2467C128.516 18.996 128.454 18.7441 128.313 18.5307C128.233 18.4533 128.136 18.3941 128.029 18.3576C127.921 18.3211 127.807 18.3083 127.694 18.3201H125.869L125.559 17.3936C126.341 16.7083 127.234 16.1466 128.202 15.73C129.012 15.3474 129.898 15.1321 130.801 15.0983C131.149 15.0838 131.489 15.1969 131.752 15.4141C131.875 15.5163 131.972 15.6428 132.037 15.7848C132.102 15.9268 132.133 16.0806 132.128 16.2354V31.2077C132.128 32.0816 132.538 32.5238 133.334 32.5238C134.087 32.472 134.802 32.1873 135.369 31.713L136.132 32.6922C135.446 33.3843 134.66 33.9799 133.798 34.4611C133.137 34.8707 132.374 35.1068 131.586 35.1455C131.142 35.1804 130.694 35.1113 130.284 34.9443C129.873 34.7774 129.512 34.5175 129.231 34.1874ZM128.711 11.0235C128.197 10.6186 127.865 10.0426 127.782 9.41261C127.859 8.79268 128.169 8.22032 128.656 7.80167C128.843 7.56223 129.078 7.36068 129.347 7.20882C129.617 7.05695 129.916 6.95782 130.226 6.91724C130.549 6.95359 130.86 7.05048 131.143 7.2023C131.426 7.35411 131.674 7.55783 131.874 7.80167C132.365 8.21805 132.68 8.79092 132.759 9.41261C132.679 10.0311 132.365 10.6005 131.874 11.013C131.675 11.2584 131.427 11.4638 131.144 11.6174C130.861 11.771 130.549 11.8698 130.226 11.908C129.603 11.8152 129.044 11.4939 128.667 11.013L128.711 11.0235Z" fill="white"/>
<path d="M142.834 33.9137C141.429 33.0861 140.304 31.8908 139.594 30.4707C138.798 28.8654 138.401 27.1074 138.432 25.3326C138.395 23.462 138.839 21.6111 139.726 19.9417C140.546 18.4264 141.82 17.1769 143.387 16.3513C145.083 15.4785 146.989 15.0429 148.917 15.0878C150.774 14.9718 152.604 15.5626 154.004 16.7304C154.578 17.2378 155.034 17.8541 155.343 18.5396C155.652 19.2251 155.806 19.9646 155.796 20.7103C155.791 21.7977 155.478 22.8636 154.889 23.7953C154.245 24.8412 153.306 25.6947 152.179 26.2591C150.918 26.8993 149.505 27.2185 148.076 27.1857C147.096 27.1767 146.123 27.0276 145.19 26.7435C144.15 26.4487 143.63 26.0064 143.63 25.4063C143.63 25.1963 143.695 24.991 143.818 24.8167C143.856 24.7455 143.913 24.6848 143.983 24.6405C144.052 24.5962 144.133 24.5699 144.216 24.564C144.497 24.6153 144.771 24.6929 145.035 24.7956C145.617 24.9718 146.227 25.0502 146.838 25.0272C147.523 25.0694 148.211 24.9792 148.859 24.7621C149.507 24.545 150.102 24.2054 150.609 23.7638C151.034 23.3675 151.37 22.8938 151.598 22.371C151.826 21.8482 151.941 21.2869 151.936 20.7209C151.937 19.7437 151.541 18.8041 150.83 18.0991C150.477 17.7429 150.047 17.4642 149.57 17.2824C149.092 17.1005 148.579 17.0199 148.065 17.0462C147.243 17.0262 146.431 17.2182 145.715 17.6019C144.998 17.9856 144.404 18.5467 143.995 19.2257C142.92 21.1219 142.423 23.266 142.558 25.4168C142.443 27.3117 142.983 29.1901 144.095 30.7656C144.612 31.4046 145.285 31.9135 146.056 32.2475C146.828 32.5816 147.673 32.7307 148.519 32.6818C149.601 32.7172 150.679 32.5411 151.688 32.1645C152.696 31.7878 153.612 31.2186 154.38 30.4918C154.425 30.4465 154.481 30.4116 154.542 30.3898C154.603 30.3679 154.669 30.3596 154.734 30.3655C155.013 30.3857 155.274 30.5061 155.464 30.7024C155.688 30.8828 155.827 31.1403 155.851 31.4184C155.85 31.503 155.819 31.5847 155.763 31.65C155.719 31.6902 155.688 31.7413 155.674 31.7974C154.7 32.8715 153.482 33.7211 152.113 34.2823C150.719 34.8647 149.211 35.159 147.689 35.1456C145.981 35.1791 144.298 34.7521 142.834 33.9137Z" fill="white"/>
<path d="M163.361 34.061C162.184 33.2644 161.264 32.1703 160.706 30.9023C159.991 29.2921 159.652 27.5535 159.711 25.8062C159.544 22.9533 160.552 20.1508 162.52 17.9937C163.503 17.027 164.691 16.2708 166.005 15.7751C167.319 15.2795 168.728 15.0559 170.14 15.1193C171.43 15.0778 172.718 15.2342 173.956 15.5826V8.75977C173.982 8.52895 173.919 8.29698 173.779 8.10697C173.702 8.03843 173.612 7.98608 173.512 7.95341C173.413 7.92074 173.308 7.90848 173.204 7.91745H171.423L171.069 6.94878C171.838 6.25519 172.724 5.68931 173.69 5.27467C174.507 4.88777 175.4 4.66554 176.311 4.62187C176.482 4.61516 176.652 4.64156 176.812 4.69948C176.972 4.7574 177.117 4.84563 177.24 4.9588C177.361 5.07458 177.454 5.21307 177.515 5.36539C177.576 5.5177 177.603 5.68047 177.594 5.84324V31.2076C177.594 31.9973 178.025 32.3869 178.888 32.3869C179.61 32.3674 180.306 32.1315 180.879 31.713L181.642 32.6817C181.011 33.3914 180.264 33.9994 179.43 34.4822C178.767 34.8829 178.003 35.1082 177.218 35.135C176.761 35.1751 176.3 35.11 175.875 34.9451C175.449 34.7802 175.072 34.5203 174.774 34.1873C174.181 33.2358 173.918 32.1306 174.022 31.0286C173.187 32.3113 172.051 33.3925 170.704 34.1873C169.574 34.7945 168.296 35.1069 166.999 35.0928C165.703 35.1144 164.433 34.754 163.361 34.061ZM174 28.6701V18.3201C172.844 17.5879 171.484 17.2027 170.096 17.2146C169.225 17.1803 168.358 17.3495 167.572 17.7074C166.785 18.0652 166.103 18.6009 165.583 19.2677C164.397 20.9869 163.83 23.0269 163.969 25.0797C163.802 26.9623 164.259 28.8473 165.274 30.4706C165.625 30.9923 166.107 31.4224 166.677 31.7221C167.246 32.0217 167.886 32.1815 168.536 32.1868C170.748 32.1868 172.606 31.0286 174 28.7123V28.6701Z" fill="white"/>
<path d="M186.807 34.1873C186.226 33.2319 185.971 32.1281 186.077 31.0286V8.75987C186.095 8.52969 186.032 8.30033 185.9 8.10708C185.814 8.03549 185.714 7.98166 185.606 7.94902C185.497 7.91639 185.383 7.90567 185.27 7.91756H183.544L183.146 6.93836C183.935 6.25114 184.835 5.68942 185.811 5.27479C186.656 4.87651 187.579 4.65398 188.521 4.62199C188.692 4.61271 188.863 4.63793 189.023 4.69599C189.183 4.75405 189.329 4.84365 189.45 4.95892C189.569 5.07581 189.662 5.21449 189.722 5.36653C189.783 5.51857 189.811 5.68079 189.804 5.84335L189.715 31.2076C189.693 31.5554 189.803 31.8992 190.025 32.1763C190.137 32.2917 190.274 32.3818 190.427 32.4401C190.581 32.4984 190.745 32.5234 190.91 32.5132C191.662 32.5092 192.382 32.2214 192.912 31.713L193.708 32.6817C193.06 33.3889 192.294 33.99 191.441 34.4611C190.776 34.8612 190.014 35.0932 189.229 35.1349C188.775 35.1761 188.317 35.1113 187.895 34.9462C187.473 34.7811 187.099 34.5206 186.807 34.1873Z" fill="white"/>
<path d="M200.41 33.9138C199.008 33.0829 197.884 31.8885 197.17 30.4708C196.385 28.8635 196.007 27.1039 196.064 25.3326C196.02 23.4694 196.461 21.6248 197.346 19.9627C198.173 18.4518 199.445 17.2039 201.007 16.3723C202.703 15.4995 204.61 15.0639 206.537 15.1088C207.457 15.0508 208.379 15.166 209.252 15.4479C210.125 15.7297 210.931 16.1727 211.624 16.7514C212.198 17.2599 212.654 17.8762 212.964 18.5613C213.275 19.2464 213.432 19.9853 213.427 20.7314C213.418 21.8196 213.101 22.8855 212.509 23.8164C211.87 24.8344 210.953 25.6678 209.855 26.2275C208.59 26.8682 207.173 27.1873 205.741 27.1541C204.761 27.1428 203.788 26.9937 202.854 26.7119C201.826 26.4171 201.306 25.9748 201.306 25.3747C201.302 25.1658 201.364 24.9605 201.483 24.7851C201.523 24.7137 201.582 24.6531 201.653 24.609C201.725 24.5648 201.807 24.5385 201.892 24.5324C202.172 24.5837 202.446 24.6613 202.71 24.764C203.289 24.9409 203.895 25.0193 204.502 24.9956C205.189 25.0386 205.879 24.9489 206.529 24.7318C207.179 24.5146 207.776 24.1746 208.284 23.7321C208.709 23.3359 209.045 22.8622 209.273 22.3394C209.501 21.8166 209.616 21.2553 209.612 20.6892C209.622 19.7203 209.247 18.7836 208.561 18.0675C208.206 17.711 207.774 17.4323 207.294 17.2505C206.815 17.0687 206.3 16.9882 205.785 17.0146C204.965 16.9954 204.154 17.1878 203.44 17.5715C202.725 17.9552 202.133 18.5159 201.726 19.1941C200.651 21.0903 200.153 23.2344 200.288 25.3852C200.168 27.2806 200.709 29.1608 201.826 30.734C202.342 31.3738 203.015 31.8831 203.787 32.2172C204.558 32.5513 205.404 32.7 206.249 32.6503C207.332 32.6856 208.41 32.5096 209.418 32.1329C210.426 31.7562 211.343 31.187 212.111 30.4602C212.156 30.415 212.211 30.3801 212.273 30.3582C212.334 30.3363 212.4 30.328 212.465 30.3339C212.744 30.3541 213.005 30.4745 213.195 30.6708C213.309 30.7568 213.401 30.8655 213.466 30.9891C213.531 31.1128 213.567 31.2485 213.571 31.3868C213.573 31.4291 213.566 31.4714 213.551 31.5112C213.536 31.551 213.513 31.5874 213.482 31.6184C213.446 31.6638 213.417 31.7133 213.394 31.7658C212.428 32.8713 211.205 33.7473 209.822 34.3244C208.427 34.9047 206.92 35.1989 205.398 35.1878C203.641 35.2311 201.908 34.7885 200.41 33.9138Z" fill="white"/>
<path d="M77.5274 58.215L78.1357 58.0781C78.6183 57.9703 79.0545 57.7241 79.3854 57.3727C79.6399 56.9098 79.7512 56.3877 79.7062 55.867V44.0955C79.7169 44.0195 79.7117 43.9421 79.6908 43.868C79.67 43.7939 79.6338 43.7245 79.5845 43.6638C79.5313 43.6177 79.468 43.5833 79.3991 43.5633C79.3303 43.5433 79.2576 43.538 79.1864 43.548H77.7155L77.4168 42.653C78.3307 42.3378 79.2702 42.0948 80.226 41.9265C81.3182 41.7154 82.4294 41.6061 83.5438 41.6001C85.3522 41.4651 87.1548 41.922 88.6533 42.8952C89.1967 43.2908 89.6362 43.8009 89.9375 44.3855C90.2388 44.9701 90.3936 45.6133 90.3897 46.2645C90.4018 47.1146 90.1807 47.9529 89.7482 48.6967C89.2926 49.4414 88.599 50.0279 87.7686 50.3708C88.776 50.655 89.6775 51.2065 90.3676 51.9607C90.9596 52.6173 91.2853 53.4539 91.2855 54.3193C91.3194 54.9665 91.1986 55.6125 90.9324 56.2089C90.6661 56.8053 90.2612 57.3364 89.7482 57.7623C88.3112 58.7225 86.5648 59.1699 84.8157 59.0258H77.8592L77.5274 58.215ZM87.7133 56.7936C88.0513 56.4463 88.3135 56.0384 88.4843 55.5937C88.6552 55.1491 88.7315 54.6764 88.7086 54.2034C88.7077 53.7601 88.6087 53.3219 88.4182 52.9174C88.2276 52.5128 87.9498 52.151 87.6027 51.8554C86.817 51.1904 85.7882 50.8463 84.7383 50.8973C84.1631 50.904 83.5921 50.8039 83.0572 50.6025C82.948 50.5547 82.8561 50.4772 82.7931 50.3798C82.7301 50.2823 82.6989 50.1693 82.7033 50.055C82.7033 49.7917 82.8139 49.6549 83.0351 49.6549L83.4996 49.7075C83.7643 49.7336 84.0312 49.7336 84.2959 49.7075C84.7796 49.7335 85.2638 49.6647 85.7185 49.5054C86.1731 49.346 86.5886 49.0994 86.9391 48.7809C87.6048 48.1221 87.9738 47.2418 87.9676 46.3277C87.979 45.8656 87.8862 45.4066 87.6954 44.9815C87.5046 44.5565 87.2203 44.1754 86.8617 43.8639C86.0368 43.1923 84.9699 42.8525 83.8867 42.9162C82.7807 42.9162 82.2056 43.2848 82.2056 44.0429V54.6878C82.1371 55.1453 82.1749 55.6115 82.3163 56.0536C82.4577 56.4957 82.6993 56.9028 83.024 57.2463C83.5904 57.6441 84.2778 57.8549 84.9816 57.8465C85.4891 57.8641 85.9948 57.7794 86.4656 57.5979C86.9363 57.4165 87.3615 57.1424 87.7133 56.7936Z" fill="white"/>
<path d="M95.5655 58.7731C95.2124 58.1895 95.0543 57.5175 95.1121 56.8463V42.969C95.1269 42.824 95.0878 42.6787 95.0015 42.5584C94.9504 42.5125 94.889 42.4782 94.8219 42.4581C94.7549 42.438 94.6839 42.4327 94.6144 42.4426H93.4974L93.2541 41.8319C93.745 41.3995 94.305 41.0441 94.913 40.779C95.4358 40.5286 96.0092 40.3886 96.5941 40.3683C96.7019 40.362 96.8099 40.3774 96.9109 40.4137C97.0119 40.45 97.1037 40.5063 97.1802 40.5789C97.2535 40.6516 97.3107 40.7375 97.3487 40.8315C97.3867 40.9255 97.4046 41.0258 97.4014 41.1264V56.92C97.3844 57.1385 97.4512 57.3555 97.5894 57.5307C97.6609 57.6008 97.7471 57.6558 97.8423 57.6921C97.9376 57.7284 98.0399 57.7451 98.1424 57.7412C98.612 57.7332 99.06 57.552 99.3921 57.2358L99.8788 57.8465C99.4749 58.269 99.0003 58.6247 98.4742 58.8994C98.061 59.1545 97.5837 59.2999 97.0918 59.3206C96.8097 59.3553 96.523 59.3235 96.2569 59.2281C95.9908 59.1326 95.7534 58.9763 95.5655 58.7731Z" fill="white"/>
<path d="M103.351 58.7727C102.998 58.1892 102.84 57.5171 102.898 56.846V49.4758C102.912 49.3176 102.873 49.1592 102.787 49.023C102.738 48.9746 102.677 48.9379 102.61 48.9159C102.542 48.894 102.471 48.8874 102.4 48.8967H101.294L101.095 48.3176C101.58 47.8831 102.137 47.5274 102.743 47.2647C103.247 47.0297 103.797 46.897 104.358 46.8752C104.573 46.8668 104.783 46.9386 104.944 47.0752C105.021 47.1393 105.083 47.2186 105.125 47.3077C105.167 47.3968 105.188 47.4935 105.187 47.5911V56.8881C105.187 57.4356 105.431 57.7093 105.928 57.7093C106.398 57.6741 106.844 57.497 107.2 57.2039L107.665 57.8146C107.235 58.2273 106.747 58.5816 106.216 58.8675C105.806 59.1213 105.333 59.2666 104.845 59.2886C104.57 59.3265 104.29 59.2992 104.03 59.2091C103.769 59.1191 103.536 58.9692 103.351 58.7727ZM103.031 44.3588C102.862 44.2461 102.724 44.0964 102.629 43.9223C102.534 43.7482 102.484 43.5548 102.484 43.3585C102.484 43.1623 102.534 42.9689 102.629 42.7948C102.724 42.6206 102.862 42.4709 103.031 42.3583C103.146 42.2066 103.292 42.0795 103.462 41.9852C103.631 41.8909 103.82 41.8315 104.015 41.8108C104.215 41.8322 104.408 41.8917 104.582 41.9858C104.757 42.0799 104.91 42.2066 105.033 42.3583C105.204 42.4694 105.344 42.6186 105.44 42.7929C105.537 42.9672 105.588 43.1614 105.588 43.3585C105.588 43.5557 105.537 43.7498 105.44 43.9242C105.344 44.0985 105.204 44.2477 105.033 44.3588C104.91 44.5105 104.757 44.6372 104.582 44.7312C104.408 44.8253 104.215 44.8848 104.015 44.9063C103.629 44.8501 103.28 44.654 103.042 44.3588H103.031Z" fill="white"/>
<path d="M110.573 58.5417C110.189 58.3112 109.874 57.9908 109.657 57.611C109.44 57.2313 109.329 56.8049 109.335 56.3727C109.328 56.1246 109.377 55.878 109.478 55.6492C109.579 55.4205 109.73 55.2148 109.921 55.046C110.327 54.6826 110.868 54.4859 111.425 54.4985C111.552 54.4989 111.677 54.5277 111.79 54.5827C111.835 54.5999 111.875 54.6287 111.904 54.6658C111.933 54.703 111.951 54.7471 111.956 54.7933C111.922 54.954 111.866 55.1098 111.79 55.2566C111.668 55.5439 111.611 55.8525 111.624 56.1621C111.608 56.4491 111.666 56.7355 111.794 56.9962C111.921 57.2568 112.113 57.4838 112.354 57.6572C112.823 58.0016 113.399 58.1869 113.991 58.1837C114.611 58.2141 115.221 58.0268 115.705 57.6572C115.921 57.4949 116.094 57.2864 116.209 57.0485C116.324 56.8107 116.379 56.5502 116.369 56.2884C116.37 56.0396 116.308 55.7941 116.186 55.5738C116.065 55.3534 115.888 55.1649 115.672 55.0249C115.038 54.6018 114.355 54.2485 113.637 53.972C112.945 53.6902 112.27 53.3738 111.613 53.0244C111.065 52.727 110.59 52.3213 110.219 51.8346C109.819 51.3171 109.613 50.6869 109.633 50.0446C109.634 49.5916 109.752 49.1457 109.978 48.7469C110.204 48.3482 110.53 48.009 110.927 47.7598C111.887 47.1378 113.03 46.8242 114.19 46.8648C115.216 46.8328 116.233 47.0541 117.143 47.5071C117.491 47.6716 117.784 47.9252 117.989 48.2396C118.194 48.5539 118.303 48.9165 118.304 49.2865C118.322 49.8388 118.112 50.3758 117.718 50.7817C117.523 50.9752 117.287 51.127 117.026 51.2269C116.765 51.3267 116.484 51.3724 116.203 51.3608C115.838 51.3608 115.65 51.245 115.65 51.0239C115.692 50.856 115.763 50.6959 115.86 50.55C116.001 50.2897 116.073 50.0006 116.07 49.7077C116.084 49.4612 116.032 49.2154 115.92 48.9928C115.808 48.7702 115.639 48.5779 115.429 48.4337C115.013 48.1416 114.507 47.9897 113.991 48.002C113.412 47.9728 112.841 48.1366 112.376 48.4653C112.184 48.6156 112.03 48.8056 111.927 49.0208C111.823 49.2361 111.773 49.471 111.779 49.7077C111.777 49.9911 111.846 50.2708 111.981 50.5235C112.116 50.7763 112.312 50.9947 112.553 51.1607C113.23 51.6162 113.976 51.9712 114.765 52.2137C115.572 52.5506 116.247 52.8559 116.778 53.1402C117.295 53.4045 117.753 53.7621 118.127 54.1931C118.495 54.6197 118.691 55.1574 118.68 55.7093C118.69 56.2166 118.572 56.7187 118.335 57.1733C118.098 57.6278 117.75 58.0213 117.32 58.3206C116.263 59.0149 114.997 59.3623 113.714 59.3103C112.609 59.3695 111.512 59.101 110.573 58.5417Z" fill="white"/>
<path d="M130.16 59.0892C129.827 58.8986 129.544 58.6395 129.33 58.3311C129.013 57.8467 128.715 57.3518 128.435 56.8464L126.554 53.4771L126.333 53.3929C126.024 53.3227 125.869 53.1647 125.869 52.9191C125.87 52.8085 125.901 52.7 125.957 52.6032C125.99 52.5557 126.034 52.5164 126.086 52.4889C126.138 52.4614 126.196 52.4464 126.256 52.4453C126.422 52.4712 126.585 52.5136 126.742 52.5716C127.104 52.6593 127.476 52.6983 127.848 52.6874C128.239 52.7065 128.629 52.648 128.995 52.5157C129.361 52.3833 129.693 52.1801 129.972 51.9188C130.217 51.696 130.412 51.428 130.545 51.1312C130.678 50.8343 130.747 50.5148 130.746 50.192C130.759 49.7537 130.601 49.3262 130.304 48.9917C130.143 48.8254 129.946 48.6955 129.726 48.6116C129.505 48.5278 129.268 48.4922 129.032 48.5074C128.409 48.5207 127.803 48.7006 127.283 49.0264C126.763 49.3523 126.349 49.8109 126.09 50.35C125.296 51.8529 124.916 53.5229 124.984 55.2039C124.965 55.8156 125.025 56.4273 125.161 57.0254C125.285 57.4848 125.507 57.9149 125.813 58.2889L126.112 58.6575L125.813 59.026H121.39L121.08 58.2889L121.633 58.1521C121.803 58.1384 121.967 58.0876 122.113 58.0036C122.259 57.9196 122.382 57.8047 122.473 57.6677C122.642 57.2522 122.714 56.8067 122.684 56.3621V42.9585C122.696 42.8137 122.657 42.6692 122.573 42.5479C122.465 42.463 122.326 42.4215 122.186 42.432H121.08L120.881 41.8319C121.366 41.3978 121.923 41.0422 122.529 40.779C123.03 40.5361 123.581 40.3995 124.143 40.3788C124.251 40.3725 124.359 40.3879 124.46 40.4242C124.561 40.4605 124.653 40.5168 124.73 40.5894C124.81 40.6583 124.873 40.743 124.915 40.8376C124.957 40.9322 124.977 41.0343 124.973 41.1369V50.4763C125.351 49.4745 126.004 48.5874 126.864 47.9072C127.596 47.2873 128.539 46.9396 129.518 46.928C129.986 46.8967 130.456 46.9603 130.897 47.1145C131.337 47.2688 131.738 47.5103 132.073 47.823C132.368 48.1106 132.6 48.4517 132.753 48.8262C132.907 49.2006 132.981 49.6006 132.969 50.0025C132.97 50.8941 132.614 51.7525 131.974 52.4031C131.272 53.1211 130.313 53.5609 129.286 53.6351L131.188 57.1834C131.276 57.373 131.418 57.5355 131.598 57.6527C131.778 57.7699 131.988 57.8371 132.206 57.8467C132.456 57.8447 132.702 57.787 132.925 57.6782C133.154 57.5719 133.36 57.4255 133.533 57.2466L134.086 57.8467C133.802 58.2949 133.406 58.6691 132.933 58.9356C132.461 59.2021 131.925 59.3525 131.376 59.3734C130.951 59.3844 130.531 59.2862 130.16 59.0892Z" fill="white"/>
<path d="M137.736 58.7729C137.379 58.1903 137.217 57.5184 137.271 56.8462V49.4759C137.29 49.3173 137.251 49.1575 137.16 49.0231C137.111 48.9747 137.05 48.938 136.983 48.916C136.916 48.8941 136.844 48.8875 136.773 48.8968H135.667L135.524 48.3703C136.005 47.9361 136.558 47.5803 137.16 47.3174C137.665 47.0838 138.215 46.9513 138.775 46.9279C138.994 46.9179 139.208 46.9897 139.372 47.1279C139.45 47.1911 139.512 47.2705 139.552 47.36C139.592 47.4495 139.61 47.5466 139.605 47.6438V56.9409C139.605 57.4884 139.848 57.7622 140.346 57.7622C140.815 57.7269 141.261 57.5499 141.617 57.2568L142.093 57.8675C141.661 58.2778 141.174 58.6318 140.644 58.9203C140.234 59.1741 139.761 59.3195 139.273 59.3415C138.987 59.3815 138.695 59.3502 138.425 59.2505C138.156 59.1508 137.918 58.9863 137.736 58.7729ZM137.415 44.3588C137.246 44.2462 137.108 44.0964 137.013 43.9223C136.918 43.7482 136.868 43.5548 136.868 43.3585C136.868 43.1623 136.918 42.9689 137.013 42.7948C137.108 42.6206 137.246 42.4709 137.415 42.3583C137.528 42.2078 137.674 42.0815 137.841 41.9872C138.009 41.893 138.195 41.8329 138.388 41.8108C138.589 41.832 138.784 41.8914 138.961 41.9854C139.137 42.0795 139.292 42.2063 139.417 42.3583C139.588 42.4694 139.728 42.6186 139.824 42.7929C139.921 42.9672 139.972 43.1614 139.972 43.3585C139.972 43.5557 139.921 43.7499 139.824 43.9242C139.728 44.0985 139.588 44.2477 139.417 44.3588C139.292 44.5108 139.137 44.6376 138.961 44.7316C138.784 44.8257 138.589 44.8851 138.388 44.9063C138.198 44.8799 138.015 44.8179 137.85 44.724C137.684 44.63 137.54 44.5059 137.426 44.3588H137.415Z" fill="white"/>
<path d="M146.218 58.6045C145.351 58.096 144.65 57.3666 144.194 56.4988C143.705 55.512 143.463 54.4309 143.487 53.3401C143.455 52.1817 143.728 51.0341 144.283 50.0024C144.789 49.0315 145.591 48.228 146.583 47.6966C147.628 47.1586 148.802 46.8866 149.99 46.9069C150.564 46.8751 151.139 46.9517 151.682 47.1324C152.224 47.3131 152.724 47.5943 153.153 47.9598C153.509 48.2755 153.791 48.6589 153.982 49.0851C154.172 49.5113 154.267 49.971 154.259 50.4341C154.256 51.1097 154.061 51.7719 153.694 52.3504C153.298 52.9854 152.723 53.5029 152.036 53.8455C151.251 54.2453 150.371 54.4448 149.481 54.4246C148.872 54.4236 148.268 54.3312 147.689 54.1508C147.048 53.9718 146.716 53.6981 146.716 53.3296C146.717 53.1994 146.755 53.072 146.827 52.9611C146.849 52.9148 146.885 52.8754 146.93 52.8475C146.975 52.8196 147.027 52.8042 147.081 52.8031C147.255 52.8327 147.425 52.8785 147.59 52.94C147.946 53.0503 148.321 53.1002 148.696 53.0874C149.119 53.1055 149.542 53.0421 149.939 52.901C150.336 52.7599 150.7 52.544 151.007 52.2661C151.275 52.0215 151.487 51.727 151.629 51.4009C151.772 51.0748 151.843 50.7242 151.836 50.371C151.845 49.7697 151.616 49.1873 151.195 48.739C150.976 48.5138 150.709 48.3369 150.411 48.2205C150.113 48.1041 149.792 48.0511 149.47 48.0651C148.964 48.0581 148.465 48.1805 148.025 48.4193C147.586 48.6582 147.221 49.0049 146.97 49.4234C146.309 50.6065 146 51.9388 146.074 53.2769C146.001 54.4551 146.335 55.6237 147.026 56.604C147.348 57.0006 147.768 57.3162 148.248 57.5235C148.728 57.7308 149.253 57.8236 149.779 57.7938C150.454 57.8142 151.125 57.7033 151.753 57.4679C152.38 57.2326 152.951 56.8777 153.429 56.4251C153.458 56.3975 153.492 56.3765 153.531 56.3637C153.569 56.3509 153.61 56.3467 153.65 56.3514C153.824 56.3641 153.986 56.4394 154.104 56.5619C154.173 56.6157 154.23 56.683 154.27 56.7592C154.31 56.8355 154.332 56.919 154.336 57.0041C154.351 57.0522 154.351 57.1035 154.336 57.1515C154.309 57.1777 154.29 57.2105 154.281 57.2463C153.678 57.9275 152.922 58.4708 152.069 58.8362C151.203 59.1923 150.269 59.3751 149.326 59.3731C148.234 59.4036 147.156 59.137 146.218 58.6045Z" fill="white"/>
</svg>
