<svg width="113" height="104" viewBox="0 0 113 104" fill="none" xmlns="http://www.w3.org/2000/svg">
<path d="M17.5004 100.723H110.121V17.0059H17.5004" stroke="#2A4819" stroke-width="5" stroke-linecap="round" stroke-linejoin="round"/>
<path d="M17.5004 3V86.6985" stroke="#2A4819" stroke-width="5" stroke-linecap="round" stroke-linejoin="round"/>
<path d="M3 10.0122V93.7108" stroke="#2A4819" stroke-width="5" stroke-linecap="round" stroke-linejoin="round"/>
<path d="M17.5004 100.723H10.9498C8.84138 100.723 6.81932 99.9844 5.32844 98.6693C3.83757 97.3543 3 95.5707 3 93.7109V93.7109C3 91.8511 3.83757 90.0675 5.32844 88.7524C6.81932 87.4373 8.84138 86.6985 10.9498 86.6985H17.5004" stroke="#2A4819" stroke-width="5" stroke-linecap="round" stroke-linejoin="round"/>
<path d="M3 10.0123C3 8.1525 3.83757 6.3689 5.32844 5.05385C6.81932 3.73879 8.84138 3 10.9498 3H17.5004" stroke="#2A4819" stroke-width="5" stroke-linecap="round" stroke-linejoin="round"/>
<path d="M74.0183 61.1925V52.9273H97.8466V81.5187H74.0183V74.2821" stroke="#2A4819" stroke-width="5" stroke-linecap="round" stroke-linejoin="round"/>
<path d="M67.6161 52.9273H74.0183" stroke="#2A4819" stroke-width="5" stroke-linecap="round" stroke-linejoin="round"/>
<path d="M74.0183 81.5187H31.9161V52.9273H52.6068" stroke="#2A4819" stroke-width="5" stroke-linecap="round" stroke-linejoin="round"/>
<path d="M52.9672 30.2824H42.6218V52.9273" stroke="#2A4819" stroke-width="5" stroke-linecap="round" stroke-linejoin="round"/>
<path d="M74.0182 52.9273V30.2824H66.4713" stroke="#2A4819" stroke-width="5" stroke-linecap="round" stroke-linejoin="round"/>
</svg>
