<svg width="104" height="102" viewBox="0 0 104 102" fill="none" xmlns="http://www.w3.org/2000/svg">
<path d="M88.6248 33.9666V6.06702C88.6248 5.22716 88.248 4.42141 87.5767 3.82579C86.9054 3.23016 85.9942 2.89306 85.042 2.88812H6.60391C5.6481 2.88812 4.73143 3.22304 4.05556 3.8192C3.3797 4.41536 3 5.22393 3 6.06702V95.525C3.0056 96.3649 3.38777 97.1687 4.06303 97.7608C4.73829 98.3529 5.65176 98.6853 6.60391 98.6852H85.042C85.9922 98.6852 86.9035 98.3523 87.5754 97.7596C88.2473 97.167 88.6248 96.3632 88.6248 95.525V69.8694" stroke="#2A4819" stroke-width="5" stroke-linecap="round" stroke-linejoin="round"/>
<path d="M62.5281 22.9525L45.8229 8.66614L29.0966 22.9525H34.2268V32.8259H57.3978V22.9525H62.5281Z" stroke="#2A4819" stroke-width="5" stroke-linecap="round" stroke-linejoin="round"/>
<path d="M18.5391 47.5797H71.0078" stroke="#2A4819" stroke-width="5" stroke-linecap="round" stroke-linejoin="round"/>
<path d="M45.823 32.8259V27.9641" stroke="#2A4819" stroke-width="5" stroke-linecap="round" stroke-linejoin="round"/>
<path d="M18.5391 63.4556H51.2499" stroke="#2A4819" stroke-width="5" stroke-linecap="round" stroke-linejoin="round"/>
<path d="M18.5391 79.3125H34.6931" stroke="#2A4819" stroke-width="5" stroke-linecap="round" stroke-linejoin="round"/>
<path d="M100.932 50.1798L90.8586 41.2943L59.484 68.9689L69.5575 77.8544L100.932 50.1798Z" stroke="#2A4819" stroke-width="5" stroke-linecap="round" stroke-linejoin="round"/>
<path d="M69.5452 77.8726L53.2216 83.3702L59.4542 68.9717" stroke="#2A4819" stroke-width="5" stroke-linecap="round" stroke-linejoin="round"/>
</svg>
