<svg width="129" height="102" viewBox="0 0 129 102" fill="none" xmlns="http://www.w3.org/2000/svg">
<path d="M64.4149 2.88812C56.2095 2.89802 48.3435 5.77755 42.5414 10.8954C36.7394 16.0132 33.4749 22.9516 33.4636 30.1892C33.4327 34.0567 34.3511 37.8842 36.156 41.4089C44.233 56.9668 59.645 73.4222 64.4149 78.3215C69.206 73.4035 84.618 56.9481 92.6738 41.4089C94.4956 37.8885 95.4218 34.059 95.3873 30.1892C95.3705 22.9499 92.1013 16.0115 86.2958 10.8942C80.4904 5.77694 72.6222 2.898 64.4149 2.88812V2.88812Z" stroke="#2A4819" stroke-width="5" stroke-linecap="round" stroke-linejoin="round"/>
<path d="M82.7736 29.6283L64.4149 13.9582L46.0561 29.6283H51.6952V44.5878H77.1346V29.6283H82.7736Z" stroke="#2A4819" stroke-width="5" stroke-linecap="round" stroke-linejoin="round"/>
<path d="M64.4149 38.6226V44.5877" stroke="#2A4819" stroke-width="5" stroke-linecap="round" stroke-linejoin="round"/>
<path d="M37.5127 59.51H30.1777L3 98.9097H125.851L98.6732 59.51H91.317" stroke="#2A4819" stroke-width="5" stroke-linecap="round" stroke-linejoin="round"/>
<path d="M108.976 74.432H86.9288L93.0978 86.6802" stroke="#2A4819" stroke-width="5" stroke-linecap="round" stroke-linejoin="round"/>
<path d="M19.8748 74.432H41.901L29.6053 98.9096" stroke="#2A4819" stroke-width="5" stroke-linecap="round" stroke-linejoin="round"/>
<path d="M115.93 86.6801H35.7532" stroke="#2A4819" stroke-width="5" stroke-linecap="round" stroke-linejoin="round"/>
<path d="M60.811 74.432H41.9011" stroke="#2A4819" stroke-width="5" stroke-linecap="round" stroke-linejoin="round"/>
<path d="M86.9287 74.432H68.04" stroke="#2A4819" stroke-width="5" stroke-linecap="round" stroke-linejoin="round"/>
</svg>
